# xmcd
#
# Track frame offsets:
#	150
#	17168
#	34677
#	52227
#	69231
#	85686
#	102117
#	123609
#	143818
#	165795
#	182375
#	199862
#	217488
#	234395
#	250863
#	267164
#	288174
#	307637
#
# Disc length: 4402 seconds
#
# Revision: 1
# Processed by: cddbd v1.5.1PL2 Copyright (c) Steve Scherf et al.
# Submitted via: audiograbber 1.83.01
#
DISCID=f2113012
DTITLE=Pocket Songs - ps1484
DYEAR=1900
DGENRE=
TTITLE0=Hill, Faith - I Got My Baby
TTITLE1=Hill, Faith - Love Is A Sweet Thing
TTITLE2=Hill, Faith - It Will Be Me
TTITLE3=Hill, Faith - If I'm Not In Love
TTITLE4=Hill, Faith - Bringing Out The Elvis
TTITLE5=Hill, Faith - If My Heart Had Wings
TTITLE6=Hill, Faith - If I Should Fall Behind
TTITLE7=Hill, Faith - That's How Love Moves
TTITLE8=Hill, Faith - There Will Come A Day
TTITLE9=Hill, Faith - I Got My Baby (Vocal)
TTITLE10=Hill, Faith - Love Is A Sweet Thing (Vocal)
TTITLE11=Hill, Faith - It Will Be Me (Vocal)
TTITLE12=Hill, Faith - If I'm Not In Love (Vocal)
TTITLE13=Hill, Faith - Bringing Out The Elvis (Vocal)
TTITLE14=Hill, Faith - If My Heart Had Wings (Vocal)
TTITLE15=Hill, Faith - If I Should Fall Behind (Vocal)
TTITLE16=Hill, Faith - That's How Love Moves (Vocal)
TTITLE17=Hill, Faith - There Will Come A Day (Vocal)
EXTD=
EXTT0=
EXTT1=
EXTT2=
EXTT3=
EXTT4=
EXTT5=
EXTT6=
EXTT7=
EXTT8=
EXTT9=
EXTT10=
EXTT11=
EXTT12=
EXTT13=
EXTT14=
EXTT15=
EXTT16=
EXTT17=
PLAYORDER=
